:SAMPLES-PER-SECOND 24
:FULLY-SPECIFIED
:DEGREES
111
root  0.13009 38.8672 -2.75119 112.156 -21.9304 -99.021
RightUpLeg  -30.9353 -47.254 -55.2553
RightLeg  16.3235 8.76663 4.4433
RightFoot  31.9382 -7.05458 18.2458
RightToes  -1.46203e-006 3.27826e-006 1.63871e-007
Spine  0.914662 -7.25395 -12.1989
Spine1  5.7108 -19.6718 46.796
HEad  11.5668 -44.0719 22.5037
LeftShoulder1  1.69216 -4.49907 -14.2398
LeftArm  96.0575 -43.3826 -127.698
LeftForeArm  29.3348 -64.1171 -20.6924
LeftHand  -0.56553 -1.7331 9.39504
RightShoulder  4.17137 6.33343 36.4795
RightArm  -25.0045 -26.8523 22.6678
RightForeArm  -12.3731 -0.253692 10.6698
RightHand  -2.0428 4.13525 -24.7974
LeftUpLeg  -16.4641 28.8115 50.2271
LeftLeg  25.7832 23.5165 12.3147
LeftFoot  -19.872 1.14462 13.6681
LeftToes  1.24767e-006 1.47042e-008 1.32732e-009
112
root  0.396263 39.5178 -3.41884 109.753 -22.9085 -96.0209
RightUpLeg  -26.4928 -45.2609 -52.9998
RightLeg  14.4191 2.74196 1.40198
RightFoot  32.0753 -9.30098 23.6567
RightToes  -1.46203e-006 3.27826e-006 1.63871e-007
Spine  0.186254 -6.40883 -10.9643
Spine1  5.66418 -17.4534 43.0394
HEad  11.9565 -43.7919 24.7966
LeftShoulder1  1.77377 -4.5135 -15.3147
LeftArm  80.3324 -42.4719 -112.136
LeftForeArm  30.613 -67.6245 -24.9772
LeftHand  -0.569487 -1.77692 9.40471
RightShoulder  4.02114 6.18333 35.5904
RightArm  -24.0703 -20.9645 18.5132
RightForeArm  -9.35283 3.8273 11.3064
RightHand  -2.39163 5.28482 -25.8857
LeftUpLeg  -16.486 28.9019 50.1859
LeftLeg  20.2142 21.4782 9.5127
LeftFoot  -15.7897 0.567432 12.1286
LeftToes  1.24767e-006 1.47042e-008 1.32732e-009
113
root  0.497124 39.9976 -3.59647 107.649 -25.7459 -93.8696
RightUpLeg  -22.2955 -44.8349 -51.0488
RightLeg  14.9121 2.22526 1.34237
RightFoot  31.7158 -5.70595 15.0175
RightToes  -1.46203e-006 3.27826e-006 1.63871e-007
Spine  0.185388 -4.96661 -9.9763
Spine1  4.64627 -14.4511 39.1358
HEad  10.3543 -42.2762 24.7827
LeftShoulder1  1.75456 -4.03025 -16.5925
LeftArm  61.9292 -39.6032 -92.0803
LeftForeArm  32.0221 -69.8613 -28.7019
LeftHand  -0.51099 -1.00814 9.40925
RightShoulder  3.49423 5.65801 32.2552
RightArm  -22.5 -19.8872 18.3609
RightForeArm  -18.9982 15.3669 8.62141
RightHand  -2.61768 5.22146 -28.3421
LeftUpLeg  -16.3685 31.5602 47.1087
LeftLeg  15.2648 16.5275 5.87149
LeftFoot  -12.9401 0.235586 11.4379
LeftToes  1.24767e-006 1.47042e-008 1.32732e-009
114
root  0.815014 40.5231 -4.22993 104.346 -28.1908 -90.2415
RightUpLeg  -23.2182 -47.3287 -48.3482
RightLeg  36.4882 4.38835 3.14478
RightFoot  34.0302 -7.43582 18.2108
RightToes  -1.46203e-006 3.27826e-006 1.63871e-007
Spine  0.574068 -3.49949 -9.74931
Spine1  4.85285 -12.4229 36.149
HEad  3.54105 -41.2705 24.4965
LeftShoulder1  1.92625 -3.95406 -19.3228
LeftArm  48.0608 -38.446 -73.4421
LeftForeArm  32.8792 -70.5911 -30.0004
LeftHand  -0.497446 -0.247948 10.3338
RightShoulder  3.40297 5.59671 31.5123
RightArm  -25.8534 -18.7166 14.9065
RightForeArm  -23.3045 28.7895 7.39564
RightHand  -3.14904 5.53275 -32.8348
LeftUpLeg  -17.6126 31.5353 45.009
LeftLeg  11.8195 13.9043 3.52227
LeftFoot  -8.96436 -0.175922 11.0582
LeftToes  1.24767e-006 1.47042e-008 1.32732e-009
115
root  1.18774 41.0131 -5.45161 101.201 -30.2946 -87.8759
RightUpLeg  -23.7242 -43.4845 -45.9512
RightLeg  62.2242 1.97453 3.55354
RightFoot  35.3141 -8.35394 19.8227
RightToes  -1.46203e-006 3.27826e-006 1.63871e-007
Spine  0.804359 -1.94145 -11.28
Spine1  6.45749 -11.4697 33.513
HEad  -1.20618 -42.5668 24.3322
LeftShoulder1  2.05124 -4.16834 -20.3032
LeftArm  36.3376 -34.0162 -61.0877
LeftForeArm  30.5525 -69.0538 -27.39
LeftHand  -0.51058 0.31602 11.7308
RightShoulder  3.60861 5.83193 32.7754
RightArm  -33.5865 -15.9666 8.92239
RightForeArm  -14.0372 39.7148 10.1225
RightHand  -3.03227 4.75694 -33.9865
LeftUpLeg  -16.8589 29.2134 44.5237
LeftLeg  7.89492 13.9125 2.68843
LeftFoot  -4.91272 -0.53941 10.1053
LeftToes  1.24767e-006 1.47042e-008 1.32732e-009
116
root  1.28302 40.9913 -5.80961 99.4442 -32.7799 -87.5008
RightUpLeg  -24.8291 -41.7789 -42.0739
RightLeg  86.8826 0.376494 4.56872
RightFoot  37.493 -8.09934 18.3266
RightToes  -1.46203e-006 3.27826e-006 1.63871e-007
Spine  1.37832 -0.476858 -11.9384
Spine1  6.67088 -10.3946 32.5805
HEad  -1.97186 -45.422 24.5335
LeftShoulder1  2.07078 -4.30175 -20.0816
LeftArm  28.8335 -24.9905 -54.7059
LeftForeArm  31.5596 -69.4744 -28.0091
LeftHand  -0.487984 0.532122 11.6937
RightShoulder  3.57206 5.78709 32.5666
RightArm  -38.4309 -14.3286 7.25181
RightForeArm  -6.01963 52.1 15.0526
RightHand  -2.70609 4.42686 -31.5149
LeftUpLeg  -15.5998 26.129 42.7205
LeftLeg  7.03896 15.2986 3.27387
LeftFoot  -4.80963 -0.518815 9.56466
LeftToes  1.24767e-006 1.47042e-008 1.32732e-009
117
root  1.56426 40.6976 -6.27448 98.8029 -36.389 -88.3115
RightUpLeg  -24.3361 -44.4476 -40.1016
RightLeg  110.283 -2.49225 6.79487
RightFoot  39.8146 -8.84427 18.9853
RightToes  -1.46203e-006 3.27826e-006 1.63871e-007
Spine  1.8797 0.763967 -13.3348
Spine1  7.49939 -9.79694 31.0397
HEad  -4.70375 -47.6311 25.3368
LeftShoulder1  2.1492 -4.30092 -21.1604
LeftArm  26.3538 -18.303 -50.6666
LeftForeArm  35.4144 -71.4308 -31.4693
LeftHand  -0.474671 0.269232 10.8125
RightShoulder  3.47637 5.69011 31.9326
RightArm  -40.893 -12.8861 8.99996
RightForeArm  7.6831 66.1547 26.4847
RightHand  -2.43626 4.5513 -28.1635
LeftUpLeg  -17.0329 24.1826 39.7289
LeftLeg  12.1068 16.4739 5.17661
LeftFoot  -7.2547 -0.27316 8.83798
LeftToes  1.24767e-006 1.47042e-008 1.32732e-009
118
root  1.86382 40.2816 -6.48492 99.6705 -40.0196 -91.0009
RightUpLeg  -22.524 -46.5684 -39.7179
RightLeg  127.446 -8.28329 10.4087
RightFoot  42.1109 -10.6597 21.6067
RightToes  -1.46203e-006 3.27826e-006 1.63871e-007
Spine  1.41318 1.8014 -13.4234
Spine1  10.569 -9.7314 28.2334
HEad  -8.43076 -48.2109 25.7919
LeftShoulder1  2.1973 -4.1952 -22.2259
LeftArm  25.9942 -14.5379 -49.0832
LeftForeArm  38.8753 -72.8381 -34.4843
LeftHand  -0.441344 0.381457 10.2683
RightShoulder  3.60781 5.84437 32.7141
RightArm  -40.7656 -9.82518 10.6683
RightForeArm  40.4116 76.4472 51.4177
RightHand  -1.90042 3.08197 -25.8682
LeftUpLeg  -18.3088 23.6856 36.7204
LeftLeg  18.853 17.4977 7.03885
LeftFoot  -10.5242 0.00213555 8.6012
LeftToes  1.24767e-006 1.47042e-008 1.32732e-009
119
root  1.87087 40.0089 -6.28464 102.191 -42.7063 -95.443
RightUpLeg  -20.6249 -46.7648 -39.8618
RightLeg  133.485 -12.334 12.4008
RightFoot  44.6745 -12.9321 24.692
RightToes  -1.46203e-006 3.27826e-006 1.63871e-007
Spine  1.06756 2.66141 -12.0638
Spine1  12.2405 -9.01409 25.392
HEad  -9.10579 -48.1245 25.2602
LeftShoulder1  2.21727 -4.18919 -22.5241
LeftArm  26.5982 -11.1743 -50.3982
LeftForeArm  39.3254 -72.837 -34.3716
LeftHand  -0.444665 0.482353 10.5501
RightShoulder  3.79653 6.03686 33.9106
RightArm  -38.7158 -7.33545 12.6505
RightForeArm  86.6058 79.7678 89.4793
RightHand  -1.41536 1.34642 -24.257
LeftUpLeg  -17.137 23.7125 34.5251
LeftLeg  22.8795 19.5237 8.18711
LeftFoot  -12.7027 0.179503 8.64936
LeftToes  1.24767e-006 1.47042e-008 1.32732e-009
